# xmcd
#
# Track frame offsets:
#	150
#	13883
#	18598
#	23278
#	27854
#	32433
#	36991
#	41807
#	44645
#	47525
#	50398
#	53267
#	56171
#	59249
#	77032
#	92914
#	107301
#	120630
#	132816
#	143922
#	154408
#
# Disc length: 2187 seconds
#
# Revision: 0
# Processed by: cddbd v1.5.2PL0 Copyright (c) Steve Scherf et al.
# Submitted via: audiograbber 1.83.01
#
DISCID=17088915
DTITLE=Joe Filisko - Bye Bye Byrd
DYEAR=1900
DGENRE=Blues
TTITLE0=Acoustic Harp Version at 100 bpm
TTITLE1=Page 1 at 60 bpm
TTITLE2=Page 2 at 60 bpm
TTITLE3=Page 3 at 60 bpm
TTITLE4=Page 4 at 60 bpm
TTITLE5=Page 5 at 60 bpm
TTITLE6=Page 6 at 60 bpm
TTITLE7=Page 1 at 100 bpm
TTITLE8=Page 2 at 100 bpm
TTITLE9=Page 3 at 100 bpm
TTITLE10=Page 4 at 100 bpm
TTITLE11=Page 5 at 100 bpm
TTITLE12=Page 6 at 100 bpm
TTITLE13=Practice Track at 78 bpm
TTITLE14=Practice Track at 88 bpm
TTITLE15=Practice Track at 98 bpm
TTITLE16=Practice Track at 108 bpm
TTITLE17=Practice Track at 118 bpm
TTITLE18=Practice Track at 128 bpm
TTITLE19=Practice Track at 138 bpm
TTITLE20=Practice Track at 148 bpm
EXTD=
EXTT0=
EXTT1=
EXTT2=
EXTT3=
EXTT4=
EXTT5=
EXTT6=
EXTT7=
EXTT8=
EXTT9=
EXTT10=
EXTT11=
EXTT12=
EXTT13=
EXTT14=
EXTT15=
EXTT16=
EXTT17=
EXTT18=
EXTT19=
EXTT20=
PLAYORDER=
